<mxfile host="app.diagrams.net" modified="2020-09-14T16:05:18.849Z" agent="5.0 (Windows NT 10.0; Win64; x64) AppleWebKit/537.36 (KHTML, like Gecko) Chrome/85.0.4183.83 Safari/537.36" etag="IoNicMd_Vu52iUjrNYVm" version="13.6.10" type="github">
  <diagram name="Page-1" id="9f46799a-70d6-7492-0946-bef42562c5a5">
    <mxGraphModel dx="1038" dy="580" grid="1" gridSize="10" guides="1" tooltips="1" connect="1" arrows="1" fold="1" page="1" pageScale="1" pageWidth="1100" pageHeight="850" background="#ffffff" math="0" shadow="0">
      <root>
        <mxCell id="0" />
        <mxCell id="1" parent="0" />
        <mxCell id="Mp1x6kanmkIfV_-Pa54P-1" value="&lt;font style=&quot;font-size: 19px&quot;&gt;&lt;i&gt;Здобувати&lt;/i&gt;&lt;/font&gt;" style="html=1;whiteSpace=wrap;aspect=fixed;shape=isoRectangle;" vertex="1" parent="1">
          <mxGeometry x="145" y="155" width="150" height="90" as="geometry" />
        </mxCell>
        <mxCell id="Mp1x6kanmkIfV_-Pa54P-2" value="&lt;font style=&quot;font-size: 19px&quot;&gt;&lt;i&gt;Навчати&lt;/i&gt;&lt;/font&gt;" style="html=1;whiteSpace=wrap;aspect=fixed;shape=isoRectangle;" vertex="1" parent="1">
          <mxGeometry x="755" y="155" width="150" height="90" as="geometry" />
        </mxCell>
        <mxCell id="Mp1x6kanmkIfV_-Pa54P-3" value="&lt;font style=&quot;font-size: 20px&quot;&gt;&lt;b&gt;Учень&lt;/b&gt;&lt;/font&gt;" style="rounded=1;whiteSpace=wrap;html=1;" vertex="1" parent="1">
          <mxGeometry x="450" y="160" width="140" height="80" as="geometry" />
        </mxCell>
        <mxCell id="Mp1x6kanmkIfV_-Pa54P-4" value="&lt;font style=&quot;font-size: 19px&quot;&gt;ПІБ&lt;/font&gt;" style="ellipse;whiteSpace=wrap;html=1;" vertex="1" parent="1">
          <mxGeometry x="160" y="20" width="120" height="80" as="geometry" />
        </mxCell>
        <mxCell id="Mp1x6kanmkIfV_-Pa54P-5" value="&lt;font style=&quot;font-size: 19px&quot;&gt;Напрям&lt;/font&gt;" style="ellipse;whiteSpace=wrap;html=1;" vertex="1" parent="1">
          <mxGeometry x="360" y="20" width="120" height="80" as="geometry" />
        </mxCell>
        <mxCell id="Mp1x6kanmkIfV_-Pa54P-6" value="&lt;font style=&quot;font-size: 19px&quot;&gt;Клас&lt;/font&gt;" style="ellipse;whiteSpace=wrap;html=1;" vertex="1" parent="1">
          <mxGeometry x="560" y="20" width="120" height="80" as="geometry" />
        </mxCell>
        <mxCell id="Mp1x6kanmkIfV_-Pa54P-7" value="&lt;font style=&quot;font-size: 17px&quot;&gt;&lt;font style=&quot;font-size: 17px&quot;&gt;Дата &lt;/font&gt;&lt;font style=&quot;font-size: 17px&quot;&gt;зарахування&lt;/font&gt;&lt;/font&gt;" style="ellipse;whiteSpace=wrap;html=1;" vertex="1" parent="1">
          <mxGeometry x="760" y="20" width="120" height="80" as="geometry" />
        </mxCell>
        <mxCell id="Mp1x6kanmkIfV_-Pa54P-12" value="" style="endArrow=none;html=1;entryX=0.5;entryY=1;entryDx=0;entryDy=0;" edge="1" parent="1" target="Mp1x6kanmkIfV_-Pa54P-7">
          <mxGeometry width="50" height="50" relative="1" as="geometry">
            <mxPoint x="590" y="170" as="sourcePoint" />
            <mxPoint x="640" y="120" as="targetPoint" />
          </mxGeometry>
        </mxCell>
        <mxCell id="Mp1x6kanmkIfV_-Pa54P-13" value="" style="endArrow=none;html=1;exitX=0.5;exitY=1;exitDx=0;exitDy=0;entryX=0.051;entryY=0.017;entryDx=0;entryDy=0;entryPerimeter=0;" edge="1" parent="1" source="Mp1x6kanmkIfV_-Pa54P-4" target="Mp1x6kanmkIfV_-Pa54P-3">
          <mxGeometry width="50" height="50" relative="1" as="geometry">
            <mxPoint x="280" y="170" as="sourcePoint" />
            <mxPoint x="440" y="160" as="targetPoint" />
          </mxGeometry>
        </mxCell>
        <mxCell id="Mp1x6kanmkIfV_-Pa54P-14" value="" style="endArrow=none;html=1;" edge="1" parent="1" target="Mp1x6kanmkIfV_-Pa54P-6">
          <mxGeometry width="50" height="50" relative="1" as="geometry">
            <mxPoint x="540" y="160" as="sourcePoint" />
            <mxPoint x="590" y="110" as="targetPoint" />
          </mxGeometry>
        </mxCell>
        <mxCell id="Mp1x6kanmkIfV_-Pa54P-15" value="" style="endArrow=none;html=1;entryX=1;entryY=1;entryDx=0;entryDy=0;exitX=0.44;exitY=-0.003;exitDx=0;exitDy=0;exitPerimeter=0;" edge="1" parent="1" source="Mp1x6kanmkIfV_-Pa54P-3" target="Mp1x6kanmkIfV_-Pa54P-5">
          <mxGeometry width="50" height="50" relative="1" as="geometry">
            <mxPoint x="500" y="140" as="sourcePoint" />
            <mxPoint x="530" y="80" as="targetPoint" />
          </mxGeometry>
        </mxCell>
        <mxCell id="Mp1x6kanmkIfV_-Pa54P-16" value="&lt;b&gt;&lt;font style=&quot;font-size: 19px&quot;&gt;Успішність&lt;/font&gt;&lt;/b&gt;" style="rounded=1;whiteSpace=wrap;html=1;" vertex="1" parent="1">
          <mxGeometry x="150" y="320" width="140" height="80" as="geometry" />
        </mxCell>
        <mxCell id="Mp1x6kanmkIfV_-Pa54P-17" value="&lt;b&gt;&lt;font style=&quot;font-size: 19px&quot;&gt;Викладачі&lt;/font&gt;&lt;/b&gt;" style="rounded=1;whiteSpace=wrap;html=1;" vertex="1" parent="1">
          <mxGeometry x="760" y="320" width="140" height="80" as="geometry" />
        </mxCell>
        <mxCell id="Mp1x6kanmkIfV_-Pa54P-19" value="" style="endArrow=none;html=1;entryX=0.503;entryY=0.984;entryDx=0;entryDy=0;entryPerimeter=0;exitX=0.5;exitY=0;exitDx=0;exitDy=0;" edge="1" parent="1" source="Mp1x6kanmkIfV_-Pa54P-16" target="Mp1x6kanmkIfV_-Pa54P-1">
          <mxGeometry width="50" height="50" relative="1" as="geometry">
            <mxPoint x="240" y="310" as="sourcePoint" />
            <mxPoint x="229" y="260" as="targetPoint" />
          </mxGeometry>
        </mxCell>
        <mxCell id="Mp1x6kanmkIfV_-Pa54P-21" value="" style="endArrow=none;html=1;entryX=0;entryY=0.5;entryDx=0;entryDy=0;" edge="1" parent="1" source="Mp1x6kanmkIfV_-Pa54P-1" target="Mp1x6kanmkIfV_-Pa54P-3">
          <mxGeometry width="50" height="50" relative="1" as="geometry">
            <mxPoint x="300" y="200" as="sourcePoint" />
            <mxPoint x="550" y="270" as="targetPoint" />
          </mxGeometry>
        </mxCell>
        <mxCell id="Mp1x6kanmkIfV_-Pa54P-22" value="" style="endArrow=none;html=1;exitX=1;exitY=0.5;exitDx=0;exitDy=0;" edge="1" parent="1" source="Mp1x6kanmkIfV_-Pa54P-3" target="Mp1x6kanmkIfV_-Pa54P-2">
          <mxGeometry width="50" height="50" relative="1" as="geometry">
            <mxPoint x="640" y="220" as="sourcePoint" />
            <mxPoint x="740" y="198" as="targetPoint" />
          </mxGeometry>
        </mxCell>
        <mxCell id="Mp1x6kanmkIfV_-Pa54P-23" value="" style="endArrow=none;html=1;exitX=0.5;exitY=0;exitDx=0;exitDy=0;entryX=0.505;entryY=0.987;entryDx=0;entryDy=0;entryPerimeter=0;" edge="1" parent="1" source="Mp1x6kanmkIfV_-Pa54P-17" target="Mp1x6kanmkIfV_-Pa54P-2">
          <mxGeometry width="50" height="50" relative="1" as="geometry">
            <mxPoint x="810" y="300" as="sourcePoint" />
            <mxPoint x="860" y="250" as="targetPoint" />
          </mxGeometry>
        </mxCell>
        <mxCell id="Mp1x6kanmkIfV_-Pa54P-24" value="&lt;font style=&quot;font-size: 19px&quot;&gt;Семестр&lt;/font&gt;" style="ellipse;whiteSpace=wrap;html=1;" vertex="1" parent="1">
          <mxGeometry x="320" y="440" width="120" height="80" as="geometry" />
        </mxCell>
        <mxCell id="Mp1x6kanmkIfV_-Pa54P-25" value="&lt;font style=&quot;font-size: 19px&quot;&gt;Предмет&lt;/font&gt;" style="ellipse;whiteSpace=wrap;html=1;" vertex="1" parent="1">
          <mxGeometry x="20" y="440" width="120" height="80" as="geometry" />
        </mxCell>
        <mxCell id="Mp1x6kanmkIfV_-Pa54P-26" value="&lt;font style=&quot;font-size: 19px&quot;&gt;Оцінка&lt;/font&gt;" style="ellipse;whiteSpace=wrap;html=1;" vertex="1" parent="1">
          <mxGeometry x="170" y="440" width="120" height="80" as="geometry" />
        </mxCell>
        <mxCell id="Mp1x6kanmkIfV_-Pa54P-27" value="&lt;font style=&quot;font-size: 19px&quot;&gt;Клас&lt;/font&gt;" style="ellipse;whiteSpace=wrap;html=1;" vertex="1" parent="1">
          <mxGeometry x="670" y="440" width="120" height="80" as="geometry" />
        </mxCell>
        <mxCell id="Mp1x6kanmkIfV_-Pa54P-28" value="&lt;font style=&quot;font-size: 18px&quot;&gt;Номер уроку&lt;/font&gt;" style="ellipse;whiteSpace=wrap;html=1;" vertex="1" parent="1">
          <mxGeometry x="860" y="440" width="120" height="80" as="geometry" />
        </mxCell>
        <mxCell id="Mp1x6kanmkIfV_-Pa54P-30" value="" style="endArrow=none;html=1;" edge="1" parent="1">
          <mxGeometry width="50" height="50" relative="1" as="geometry">
            <mxPoint x="120" y="450" as="sourcePoint" />
            <mxPoint x="170" y="400" as="targetPoint" />
          </mxGeometry>
        </mxCell>
        <mxCell id="Mp1x6kanmkIfV_-Pa54P-31" value="" style="endArrow=none;html=1;" edge="1" parent="1">
          <mxGeometry width="50" height="50" relative="1" as="geometry">
            <mxPoint x="370" y="440" as="sourcePoint" />
            <mxPoint x="270" y="400" as="targetPoint" />
          </mxGeometry>
        </mxCell>
        <mxCell id="Mp1x6kanmkIfV_-Pa54P-32" value="" style="endArrow=none;html=1;" edge="1" parent="1" target="Mp1x6kanmkIfV_-Pa54P-16">
          <mxGeometry width="50" height="50" relative="1" as="geometry">
            <mxPoint x="230" y="440" as="sourcePoint" />
            <mxPoint x="220" y="410" as="targetPoint" />
          </mxGeometry>
        </mxCell>
        <mxCell id="Mp1x6kanmkIfV_-Pa54P-33" value="" style="endArrow=none;html=1;" edge="1" parent="1">
          <mxGeometry width="50" height="50" relative="1" as="geometry">
            <mxPoint x="770" y="450" as="sourcePoint" />
            <mxPoint x="820" y="400" as="targetPoint" />
          </mxGeometry>
        </mxCell>
        <mxCell id="Mp1x6kanmkIfV_-Pa54P-34" value="" style="endArrow=none;html=1;entryX=0.75;entryY=1;entryDx=0;entryDy=0;" edge="1" parent="1" target="Mp1x6kanmkIfV_-Pa54P-17">
          <mxGeometry width="50" height="50" relative="1" as="geometry">
            <mxPoint x="910" y="440" as="sourcePoint" />
            <mxPoint x="960" y="390" as="targetPoint" />
          </mxGeometry>
        </mxCell>
        <mxCell id="Mp1x6kanmkIfV_-Pa54P-35" value="&lt;font style=&quot;font-size: 15px&quot;&gt;1&lt;/font&gt;" style="text;html=1;align=center;verticalAlign=middle;resizable=0;points=[];autosize=1;" vertex="1" parent="1">
          <mxGeometry x="430" y="180" width="20" height="20" as="geometry" />
        </mxCell>
        <mxCell id="Mp1x6kanmkIfV_-Pa54P-36" value="&lt;span style=&quot;font-size: 14px&quot;&gt;N&lt;/span&gt;" style="text;html=1;align=center;verticalAlign=middle;resizable=0;points=[];autosize=1;rotation=0;" vertex="1" parent="1">
          <mxGeometry x="215" y="290" width="30" height="20" as="geometry" />
        </mxCell>
        <mxCell id="Mp1x6kanmkIfV_-Pa54P-37" value="&lt;font style=&quot;font-size: 15px&quot;&gt;M&lt;/font&gt;" style="text;html=1;align=center;verticalAlign=middle;resizable=0;points=[];autosize=1;" vertex="1" parent="1">
          <mxGeometry x="790" y="290" width="30" height="20" as="geometry" />
        </mxCell>
        <mxCell id="Mp1x6kanmkIfV_-Pa54P-38" value="&lt;font style=&quot;font-size: 15px&quot;&gt;N&lt;/font&gt;" style="text;html=1;align=center;verticalAlign=middle;resizable=0;points=[];autosize=1;" vertex="1" parent="1">
          <mxGeometry x="590" y="180" width="30" height="20" as="geometry" />
        </mxCell>
      </root>
    </mxGraphModel>
  </diagram>
</mxfile>
